<svg xmlns="http://www.w3.org/2000/svg" width="1350" height="1012" viewBox="0 0 1350 1012" font-family="ui-sans-serif,system-ui,sans-serif">
<rect width="1350" height="1012" fill="#0f1115"/>
<text x="64" y="30" fill="#e6e6e6" font-size="21" font-weight="700">7x9 perfboard layout — Freenove + SX1262</text>
<circle cx="81" cy="71" r="3" fill="#22303c"/>
<circle cx="81" cy="105" r="3" fill="#22303c"/>
<circle cx="81" cy="139" r="3" fill="#22303c"/>
<circle cx="81" cy="173" r="3" fill="#22303c"/>
<circle cx="81" cy="207" r="3" fill="#22303c"/>
<circle cx="81" cy="241" r="3" fill="#22303c"/>
<circle cx="81" cy="275" r="3" fill="#22303c"/>
<circle cx="81" cy="309" r="3" fill="#22303c"/>
<circle cx="81" cy="343" r="3" fill="#22303c"/>
<circle cx="81" cy="377" r="3" fill="#22303c"/>
<circle cx="81" cy="411" r="3" fill="#22303c"/>
<circle cx="81" cy="445" r="3" fill="#22303c"/>
<circle cx="81" cy="479" r="3" fill="#22303c"/>
<circle cx="81" cy="513" r="3" fill="#22303c"/>
<circle cx="81" cy="547" r="3" fill="#22303c"/>
<circle cx="81" cy="581" r="3" fill="#22303c"/>
<circle cx="81" cy="615" r="3" fill="#22303c"/>
<circle cx="81" cy="649" r="3" fill="#22303c"/>
<circle cx="81" cy="683" r="3" fill="#22303c"/>
<circle cx="81" cy="717" r="3" fill="#22303c"/>
<circle cx="81" cy="751" r="3" fill="#22303c"/>
<circle cx="81" cy="785" r="3" fill="#22303c"/>
<circle cx="81" cy="819" r="3" fill="#22303c"/>
<circle cx="81" cy="853" r="3" fill="#22303c"/>
<circle cx="81" cy="887" r="3" fill="#22303c"/>
<circle cx="81" cy="921" r="3" fill="#22303c"/>
<circle cx="81" cy="955" r="3" fill="#22303c"/>
<circle cx="115" cy="71" r="3" fill="#22303c"/>
<circle cx="115" cy="105" r="3" fill="#22303c"/>
<circle cx="115" cy="139" r="3" fill="#22303c"/>
<circle cx="115" cy="173" r="3" fill="#22303c"/>
<circle cx="115" cy="207" r="3" fill="#22303c"/>
<circle cx="115" cy="241" r="3" fill="#22303c"/>
<circle cx="115" cy="275" r="3" fill="#22303c"/>
<circle cx="115" cy="309" r="3" fill="#22303c"/>
<circle cx="115" cy="343" r="3" fill="#22303c"/>
<circle cx="115" cy="377" r="3" fill="#22303c"/>
<circle cx="115" cy="411" r="3" fill="#22303c"/>
<circle cx="115" cy="445" r="3" fill="#22303c"/>
<circle cx="115" cy="479" r="3" fill="#22303c"/>
<circle cx="115" cy="513" r="3" fill="#22303c"/>
<circle cx="115" cy="547" r="3" fill="#22303c"/>
<circle cx="115" cy="581" r="3" fill="#22303c"/>
<circle cx="115" cy="615" r="3" fill="#22303c"/>
<circle cx="115" cy="649" r="3" fill="#22303c"/>
<circle cx="115" cy="683" r="3" fill="#22303c"/>
<circle cx="115" cy="717" r="3" fill="#22303c"/>
<circle cx="115" cy="751" r="3" fill="#22303c"/>
<circle cx="115" cy="785" r="3" fill="#22303c"/>
<circle cx="115" cy="819" r="3" fill="#22303c"/>
<circle cx="115" cy="853" r="3" fill="#22303c"/>
<circle cx="115" cy="887" r="3" fill="#22303c"/>
<circle cx="115" cy="921" r="3" fill="#22303c"/>
<circle cx="115" cy="955" r="3" fill="#22303c"/>
<circle cx="149" cy="71" r="3" fill="#22303c"/>
<circle cx="149" cy="105" r="3" fill="#22303c"/>
<circle cx="149" cy="139" r="3" fill="#22303c"/>
<circle cx="149" cy="173" r="3" fill="#22303c"/>
<circle cx="149" cy="207" r="3" fill="#22303c"/>
<circle cx="149" cy="241" r="3" fill="#22303c"/>
<circle cx="149" cy="275" r="3" fill="#22303c"/>
<circle cx="149" cy="309" r="3" fill="#22303c"/>
<circle cx="149" cy="343" r="3" fill="#22303c"/>
<circle cx="149" cy="377" r="3" fill="#22303c"/>
<circle cx="149" cy="411" r="3" fill="#22303c"/>
<circle cx="149" cy="445" r="3" fill="#22303c"/>
<circle cx="149" cy="479" r="3" fill="#22303c"/>
<circle cx="149" cy="513" r="3" fill="#22303c"/>
<circle cx="149" cy="547" r="3" fill="#22303c"/>
<circle cx="149" cy="581" r="3" fill="#22303c"/>
<circle cx="149" cy="615" r="3" fill="#22303c"/>
<circle cx="149" cy="649" r="3" fill="#22303c"/>
<circle cx="149" cy="683" r="3" fill="#22303c"/>
<circle cx="149" cy="717" r="3" fill="#22303c"/>
<circle cx="149" cy="751" r="3" fill="#22303c"/>
<circle cx="149" cy="785" r="3" fill="#22303c"/>
<circle cx="149" cy="819" r="3" fill="#22303c"/>
<circle cx="149" cy="853" r="3" fill="#22303c"/>
<circle cx="149" cy="887" r="3" fill="#22303c"/>
<circle cx="149" cy="921" r="3" fill="#22303c"/>
<circle cx="149" cy="955" r="3" fill="#22303c"/>
<circle cx="183" cy="71" r="3" fill="#22303c"/>
<circle cx="183" cy="105" r="3" fill="#22303c"/>
<circle cx="183" cy="139" r="3" fill="#22303c"/>
<circle cx="183" cy="173" r="3" fill="#22303c"/>
<circle cx="183" cy="207" r="3" fill="#22303c"/>
<circle cx="183" cy="241" r="3" fill="#22303c"/>
<circle cx="183" cy="275" r="3" fill="#22303c"/>
<circle cx="183" cy="309" r="3" fill="#22303c"/>
<circle cx="183" cy="343" r="3" fill="#22303c"/>
<circle cx="183" cy="377" r="3" fill="#22303c"/>
<circle cx="183" cy="411" r="3" fill="#22303c"/>
<circle cx="183" cy="445" r="3" fill="#22303c"/>
<circle cx="183" cy="479" r="3" fill="#22303c"/>
<circle cx="183" cy="513" r="3" fill="#22303c"/>
<circle cx="183" cy="547" r="3" fill="#22303c"/>
<circle cx="183" cy="581" r="3" fill="#22303c"/>
<circle cx="183" cy="615" r="3" fill="#22303c"/>
<circle cx="183" cy="649" r="3" fill="#22303c"/>
<circle cx="183" cy="683" r="3" fill="#22303c"/>
<circle cx="183" cy="717" r="3" fill="#22303c"/>
<circle cx="183" cy="751" r="3" fill="#22303c"/>
<circle cx="183" cy="785" r="3" fill="#22303c"/>
<circle cx="183" cy="819" r="3" fill="#22303c"/>
<circle cx="183" cy="853" r="3" fill="#22303c"/>
<circle cx="183" cy="887" r="3" fill="#22303c"/>
<circle cx="183" cy="921" r="3" fill="#22303c"/>
<circle cx="183" cy="955" r="3" fill="#22303c"/>
<circle cx="217" cy="71" r="3" fill="#22303c"/>
<circle cx="217" cy="105" r="3" fill="#22303c"/>
<circle cx="217" cy="139" r="3" fill="#22303c"/>
<circle cx="217" cy="173" r="3" fill="#22303c"/>
<circle cx="217" cy="207" r="3" fill="#22303c"/>
<circle cx="217" cy="241" r="3" fill="#22303c"/>
<circle cx="217" cy="275" r="3" fill="#22303c"/>
<circle cx="217" cy="309" r="3" fill="#22303c"/>
<circle cx="217" cy="343" r="3" fill="#22303c"/>
<circle cx="217" cy="377" r="3" fill="#22303c"/>
<circle cx="217" cy="411" r="3" fill="#22303c"/>
<circle cx="217" cy="445" r="3" fill="#22303c"/>
<circle cx="217" cy="479" r="3" fill="#22303c"/>
<circle cx="217" cy="513" r="3" fill="#22303c"/>
<circle cx="217" cy="547" r="3" fill="#22303c"/>
<circle cx="217" cy="581" r="3" fill="#22303c"/>
<circle cx="217" cy="615" r="3" fill="#22303c"/>
<circle cx="217" cy="649" r="3" fill="#22303c"/>
<circle cx="217" cy="683" r="3" fill="#22303c"/>
<circle cx="217" cy="717" r="3" fill="#22303c"/>
<circle cx="217" cy="751" r="3" fill="#22303c"/>
<circle cx="217" cy="785" r="3" fill="#22303c"/>
<circle cx="217" cy="819" r="3" fill="#22303c"/>
<circle cx="217" cy="853" r="3" fill="#22303c"/>
<circle cx="217" cy="887" r="3" fill="#22303c"/>
<circle cx="217" cy="921" r="3" fill="#22303c"/>
<circle cx="217" cy="955" r="3" fill="#22303c"/>
<circle cx="251" cy="71" r="3" fill="#22303c"/>
<circle cx="251" cy="105" r="3" fill="#22303c"/>
<circle cx="251" cy="139" r="3" fill="#22303c"/>
<circle cx="251" cy="173" r="3" fill="#22303c"/>
<circle cx="251" cy="207" r="3" fill="#22303c"/>
<circle cx="251" cy="241" r="3" fill="#22303c"/>
<circle cx="251" cy="275" r="3" fill="#22303c"/>
<circle cx="251" cy="309" r="3" fill="#22303c"/>
<circle cx="251" cy="343" r="3" fill="#22303c"/>
<circle cx="251" cy="377" r="3" fill="#22303c"/>
<circle cx="251" cy="411" r="3" fill="#22303c"/>
<circle cx="251" cy="445" r="3" fill="#22303c"/>
<circle cx="251" cy="479" r="3" fill="#22303c"/>
<circle cx="251" cy="513" r="3" fill="#22303c"/>
<circle cx="251" cy="547" r="3" fill="#22303c"/>
<circle cx="251" cy="581" r="3" fill="#22303c"/>
<circle cx="251" cy="615" r="3" fill="#22303c"/>
<circle cx="251" cy="649" r="3" fill="#22303c"/>
<circle cx="251" cy="683" r="3" fill="#22303c"/>
<circle cx="251" cy="717" r="3" fill="#22303c"/>
<circle cx="251" cy="751" r="3" fill="#22303c"/>
<circle cx="251" cy="785" r="3" fill="#22303c"/>
<circle cx="251" cy="819" r="3" fill="#22303c"/>
<circle cx="251" cy="853" r="3" fill="#22303c"/>
<circle cx="251" cy="887" r="3" fill="#22303c"/>
<circle cx="251" cy="921" r="3" fill="#22303c"/>
<circle cx="251" cy="955" r="3" fill="#22303c"/>
<circle cx="285" cy="71" r="3" fill="#22303c"/>
<circle cx="285" cy="105" r="3" fill="#22303c"/>
<circle cx="285" cy="139" r="3" fill="#22303c"/>
<circle cx="285" cy="173" r="3" fill="#22303c"/>
<circle cx="285" cy="207" r="3" fill="#22303c"/>
<circle cx="285" cy="241" r="3" fill="#22303c"/>
<circle cx="285" cy="275" r="3" fill="#22303c"/>
<circle cx="285" cy="309" r="3" fill="#22303c"/>
<circle cx="285" cy="343" r="3" fill="#22303c"/>
<circle cx="285" cy="377" r="3" fill="#22303c"/>
<circle cx="285" cy="411" r="3" fill="#22303c"/>
<circle cx="285" cy="445" r="3" fill="#22303c"/>
<circle cx="285" cy="479" r="3" fill="#22303c"/>
<circle cx="285" cy="513" r="3" fill="#22303c"/>
<circle cx="285" cy="547" r="3" fill="#22303c"/>
<circle cx="285" cy="581" r="3" fill="#22303c"/>
<circle cx="285" cy="615" r="3" fill="#22303c"/>
<circle cx="285" cy="649" r="3" fill="#22303c"/>
<circle cx="285" cy="683" r="3" fill="#22303c"/>
<circle cx="285" cy="717" r="3" fill="#22303c"/>
<circle cx="285" cy="751" r="3" fill="#22303c"/>
<circle cx="285" cy="785" r="3" fill="#22303c"/>
<circle cx="285" cy="819" r="3" fill="#22303c"/>
<circle cx="285" cy="853" r="3" fill="#22303c"/>
<circle cx="285" cy="887" r="3" fill="#22303c"/>
<circle cx="285" cy="921" r="3" fill="#22303c"/>
<circle cx="285" cy="955" r="3" fill="#22303c"/>
<circle cx="319" cy="71" r="3" fill="#22303c"/>
<circle cx="319" cy="105" r="3" fill="#22303c"/>
<circle cx="319" cy="139" r="3" fill="#22303c"/>
<circle cx="319" cy="173" r="3" fill="#22303c"/>
<circle cx="319" cy="207" r="3" fill="#22303c"/>
<circle cx="319" cy="241" r="3" fill="#22303c"/>
<circle cx="319" cy="275" r="3" fill="#22303c"/>
<circle cx="319" cy="309" r="3" fill="#22303c"/>
<circle cx="319" cy="343" r="3" fill="#22303c"/>
<circle cx="319" cy="377" r="3" fill="#22303c"/>
<circle cx="319" cy="411" r="3" fill="#22303c"/>
<circle cx="319" cy="445" r="3" fill="#22303c"/>
<circle cx="319" cy="479" r="3" fill="#22303c"/>
<circle cx="319" cy="513" r="3" fill="#22303c"/>
<circle cx="319" cy="547" r="3" fill="#22303c"/>
<circle cx="319" cy="581" r="3" fill="#22303c"/>
<circle cx="319" cy="615" r="3" fill="#22303c"/>
<circle cx="319" cy="649" r="3" fill="#22303c"/>
<circle cx="319" cy="683" r="3" fill="#22303c"/>
<circle cx="319" cy="717" r="3" fill="#22303c"/>
<circle cx="319" cy="751" r="3" fill="#22303c"/>
<circle cx="319" cy="785" r="3" fill="#22303c"/>
<circle cx="319" cy="819" r="3" fill="#22303c"/>
<circle cx="319" cy="853" r="3" fill="#22303c"/>
<circle cx="319" cy="887" r="3" fill="#22303c"/>
<circle cx="319" cy="921" r="3" fill="#22303c"/>
<circle cx="319" cy="955" r="3" fill="#22303c"/>
<circle cx="353" cy="71" r="3" fill="#22303c"/>
<circle cx="353" cy="105" r="3" fill="#22303c"/>
<circle cx="353" cy="139" r="3" fill="#22303c"/>
<circle cx="353" cy="173" r="3" fill="#22303c"/>
<circle cx="353" cy="207" r="3" fill="#22303c"/>
<circle cx="353" cy="241" r="3" fill="#22303c"/>
<circle cx="353" cy="275" r="3" fill="#22303c"/>
<circle cx="353" cy="309" r="3" fill="#22303c"/>
<circle cx="353" cy="343" r="3" fill="#22303c"/>
<circle cx="353" cy="377" r="3" fill="#22303c"/>
<circle cx="353" cy="411" r="3" fill="#22303c"/>
<circle cx="353" cy="445" r="3" fill="#22303c"/>
<circle cx="353" cy="479" r="3" fill="#22303c"/>
<circle cx="353" cy="513" r="3" fill="#22303c"/>
<circle cx="353" cy="547" r="3" fill="#22303c"/>
<circle cx="353" cy="581" r="3" fill="#22303c"/>
<circle cx="353" cy="615" r="3" fill="#22303c"/>
<circle cx="353" cy="649" r="3" fill="#22303c"/>
<circle cx="353" cy="683" r="3" fill="#22303c"/>
<circle cx="353" cy="717" r="3" fill="#22303c"/>
<circle cx="353" cy="751" r="3" fill="#22303c"/>
<circle cx="353" cy="785" r="3" fill="#22303c"/>
<circle cx="353" cy="819" r="3" fill="#22303c"/>
<circle cx="353" cy="853" r="3" fill="#22303c"/>
<circle cx="353" cy="887" r="3" fill="#22303c"/>
<circle cx="353" cy="921" r="3" fill="#22303c"/>
<circle cx="353" cy="955" r="3" fill="#22303c"/>
<circle cx="387" cy="71" r="3" fill="#22303c"/>
<circle cx="387" cy="105" r="3" fill="#22303c"/>
<circle cx="387" cy="139" r="3" fill="#22303c"/>
<circle cx="387" cy="173" r="3" fill="#22303c"/>
<circle cx="387" cy="207" r="3" fill="#22303c"/>
<circle cx="387" cy="241" r="3" fill="#22303c"/>
<circle cx="387" cy="275" r="3" fill="#22303c"/>
<circle cx="387" cy="309" r="3" fill="#22303c"/>
<circle cx="387" cy="343" r="3" fill="#22303c"/>
<circle cx="387" cy="377" r="3" fill="#22303c"/>
<circle cx="387" cy="411" r="3" fill="#22303c"/>
<circle cx="387" cy="445" r="3" fill="#22303c"/>
<circle cx="387" cy="479" r="3" fill="#22303c"/>
<circle cx="387" cy="513" r="3" fill="#22303c"/>
<circle cx="387" cy="547" r="3" fill="#22303c"/>
<circle cx="387" cy="581" r="3" fill="#22303c"/>
<circle cx="387" cy="615" r="3" fill="#22303c"/>
<circle cx="387" cy="649" r="3" fill="#22303c"/>
<circle cx="387" cy="683" r="3" fill="#22303c"/>
<circle cx="387" cy="717" r="3" fill="#22303c"/>
<circle cx="387" cy="751" r="3" fill="#22303c"/>
<circle cx="387" cy="785" r="3" fill="#22303c"/>
<circle cx="387" cy="819" r="3" fill="#22303c"/>
<circle cx="387" cy="853" r="3" fill="#22303c"/>
<circle cx="387" cy="887" r="3" fill="#22303c"/>
<circle cx="387" cy="921" r="3" fill="#22303c"/>
<circle cx="387" cy="955" r="3" fill="#22303c"/>
<circle cx="421" cy="71" r="3" fill="#22303c"/>
<circle cx="421" cy="105" r="3" fill="#22303c"/>
<circle cx="421" cy="139" r="3" fill="#22303c"/>
<circle cx="421" cy="173" r="3" fill="#22303c"/>
<circle cx="421" cy="207" r="3" fill="#22303c"/>
<circle cx="421" cy="241" r="3" fill="#22303c"/>
<circle cx="421" cy="275" r="3" fill="#22303c"/>
<circle cx="421" cy="309" r="3" fill="#22303c"/>
<circle cx="421" cy="343" r="3" fill="#22303c"/>
<circle cx="421" cy="377" r="3" fill="#22303c"/>
<circle cx="421" cy="411" r="3" fill="#22303c"/>
<circle cx="421" cy="445" r="3" fill="#22303c"/>
<circle cx="421" cy="479" r="3" fill="#22303c"/>
<circle cx="421" cy="513" r="3" fill="#22303c"/>
<circle cx="421" cy="547" r="3" fill="#22303c"/>
<circle cx="421" cy="581" r="3" fill="#22303c"/>
<circle cx="421" cy="615" r="3" fill="#22303c"/>
<circle cx="421" cy="649" r="3" fill="#22303c"/>
<circle cx="421" cy="683" r="3" fill="#22303c"/>
<circle cx="421" cy="717" r="3" fill="#22303c"/>
<circle cx="421" cy="751" r="3" fill="#22303c"/>
<circle cx="421" cy="785" r="3" fill="#22303c"/>
<circle cx="421" cy="819" r="3" fill="#22303c"/>
<circle cx="421" cy="853" r="3" fill="#22303c"/>
<circle cx="421" cy="887" r="3" fill="#22303c"/>
<circle cx="421" cy="921" r="3" fill="#22303c"/>
<circle cx="421" cy="955" r="3" fill="#22303c"/>
<circle cx="455" cy="71" r="3" fill="#22303c"/>
<circle cx="455" cy="105" r="3" fill="#22303c"/>
<circle cx="455" cy="139" r="3" fill="#22303c"/>
<circle cx="455" cy="173" r="3" fill="#22303c"/>
<circle cx="455" cy="207" r="3" fill="#22303c"/>
<circle cx="455" cy="241" r="3" fill="#22303c"/>
<circle cx="455" cy="275" r="3" fill="#22303c"/>
<circle cx="455" cy="309" r="3" fill="#22303c"/>
<circle cx="455" cy="343" r="3" fill="#22303c"/>
<circle cx="455" cy="377" r="3" fill="#22303c"/>
<circle cx="455" cy="411" r="3" fill="#22303c"/>
<circle cx="455" cy="445" r="3" fill="#22303c"/>
<circle cx="455" cy="479" r="3" fill="#22303c"/>
<circle cx="455" cy="513" r="3" fill="#22303c"/>
<circle cx="455" cy="547" r="3" fill="#22303c"/>
<circle cx="455" cy="581" r="3" fill="#22303c"/>
<circle cx="455" cy="615" r="3" fill="#22303c"/>
<circle cx="455" cy="649" r="3" fill="#22303c"/>
<circle cx="455" cy="683" r="3" fill="#22303c"/>
<circle cx="455" cy="717" r="3" fill="#22303c"/>
<circle cx="455" cy="751" r="3" fill="#22303c"/>
<circle cx="455" cy="785" r="3" fill="#22303c"/>
<circle cx="455" cy="819" r="3" fill="#22303c"/>
<circle cx="455" cy="853" r="3" fill="#22303c"/>
<circle cx="455" cy="887" r="3" fill="#22303c"/>
<circle cx="455" cy="921" r="3" fill="#22303c"/>
<circle cx="455" cy="955" r="3" fill="#22303c"/>
<circle cx="489" cy="71" r="3" fill="#22303c"/>
<circle cx="489" cy="105" r="3" fill="#22303c"/>
<circle cx="489" cy="139" r="3" fill="#22303c"/>
<circle cx="489" cy="173" r="3" fill="#22303c"/>
<circle cx="489" cy="207" r="3" fill="#22303c"/>
<circle cx="489" cy="241" r="3" fill="#22303c"/>
<circle cx="489" cy="275" r="3" fill="#22303c"/>
<circle cx="489" cy="309" r="3" fill="#22303c"/>
<circle cx="489" cy="343" r="3" fill="#22303c"/>
<circle cx="489" cy="377" r="3" fill="#22303c"/>
<circle cx="489" cy="411" r="3" fill="#22303c"/>
<circle cx="489" cy="445" r="3" fill="#22303c"/>
<circle cx="489" cy="479" r="3" fill="#22303c"/>
<circle cx="489" cy="513" r="3" fill="#22303c"/>
<circle cx="489" cy="547" r="3" fill="#22303c"/>
<circle cx="489" cy="581" r="3" fill="#22303c"/>
<circle cx="489" cy="615" r="3" fill="#22303c"/>
<circle cx="489" cy="649" r="3" fill="#22303c"/>
<circle cx="489" cy="683" r="3" fill="#22303c"/>
<circle cx="489" cy="717" r="3" fill="#22303c"/>
<circle cx="489" cy="751" r="3" fill="#22303c"/>
<circle cx="489" cy="785" r="3" fill="#22303c"/>
<circle cx="489" cy="819" r="3" fill="#22303c"/>
<circle cx="489" cy="853" r="3" fill="#22303c"/>
<circle cx="489" cy="887" r="3" fill="#22303c"/>
<circle cx="489" cy="921" r="3" fill="#22303c"/>
<circle cx="489" cy="955" r="3" fill="#22303c"/>
<circle cx="523" cy="71" r="3" fill="#22303c"/>
<circle cx="523" cy="105" r="3" fill="#22303c"/>
<circle cx="523" cy="139" r="3" fill="#22303c"/>
<circle cx="523" cy="173" r="3" fill="#22303c"/>
<circle cx="523" cy="207" r="3" fill="#22303c"/>
<circle cx="523" cy="241" r="3" fill="#22303c"/>
<circle cx="523" cy="275" r="3" fill="#22303c"/>
<circle cx="523" cy="309" r="3" fill="#22303c"/>
<circle cx="523" cy="343" r="3" fill="#22303c"/>
<circle cx="523" cy="377" r="3" fill="#22303c"/>
<circle cx="523" cy="411" r="3" fill="#22303c"/>
<circle cx="523" cy="445" r="3" fill="#22303c"/>
<circle cx="523" cy="479" r="3" fill="#22303c"/>
<circle cx="523" cy="513" r="3" fill="#22303c"/>
<circle cx="523" cy="547" r="3" fill="#22303c"/>
<circle cx="523" cy="581" r="3" fill="#22303c"/>
<circle cx="523" cy="615" r="3" fill="#22303c"/>
<circle cx="523" cy="649" r="3" fill="#22303c"/>
<circle cx="523" cy="683" r="3" fill="#22303c"/>
<circle cx="523" cy="717" r="3" fill="#22303c"/>
<circle cx="523" cy="751" r="3" fill="#22303c"/>
<circle cx="523" cy="785" r="3" fill="#22303c"/>
<circle cx="523" cy="819" r="3" fill="#22303c"/>
<circle cx="523" cy="853" r="3" fill="#22303c"/>
<circle cx="523" cy="887" r="3" fill="#22303c"/>
<circle cx="523" cy="921" r="3" fill="#22303c"/>
<circle cx="523" cy="955" r="3" fill="#22303c"/>
<circle cx="557" cy="71" r="3" fill="#22303c"/>
<circle cx="557" cy="105" r="3" fill="#22303c"/>
<circle cx="557" cy="139" r="3" fill="#22303c"/>
<circle cx="557" cy="173" r="3" fill="#22303c"/>
<circle cx="557" cy="207" r="3" fill="#22303c"/>
<circle cx="557" cy="241" r="3" fill="#22303c"/>
<circle cx="557" cy="275" r="3" fill="#22303c"/>
<circle cx="557" cy="309" r="3" fill="#22303c"/>
<circle cx="557" cy="343" r="3" fill="#22303c"/>
<circle cx="557" cy="377" r="3" fill="#22303c"/>
<circle cx="557" cy="411" r="3" fill="#22303c"/>
<circle cx="557" cy="445" r="3" fill="#22303c"/>
<circle cx="557" cy="479" r="3" fill="#22303c"/>
<circle cx="557" cy="513" r="3" fill="#22303c"/>
<circle cx="557" cy="547" r="3" fill="#22303c"/>
<circle cx="557" cy="581" r="3" fill="#22303c"/>
<circle cx="557" cy="615" r="3" fill="#22303c"/>
<circle cx="557" cy="649" r="3" fill="#22303c"/>
<circle cx="557" cy="683" r="3" fill="#22303c"/>
<circle cx="557" cy="717" r="3" fill="#22303c"/>
<circle cx="557" cy="751" r="3" fill="#22303c"/>
<circle cx="557" cy="785" r="3" fill="#22303c"/>
<circle cx="557" cy="819" r="3" fill="#22303c"/>
<circle cx="557" cy="853" r="3" fill="#22303c"/>
<circle cx="557" cy="887" r="3" fill="#22303c"/>
<circle cx="557" cy="921" r="3" fill="#22303c"/>
<circle cx="557" cy="955" r="3" fill="#22303c"/>
<circle cx="591" cy="71" r="3" fill="#22303c"/>
<circle cx="591" cy="105" r="3" fill="#22303c"/>
<circle cx="591" cy="139" r="3" fill="#22303c"/>
<circle cx="591" cy="173" r="3" fill="#22303c"/>
<circle cx="591" cy="207" r="3" fill="#22303c"/>
<circle cx="591" cy="241" r="3" fill="#22303c"/>
<circle cx="591" cy="275" r="3" fill="#22303c"/>
<circle cx="591" cy="309" r="3" fill="#22303c"/>
<circle cx="591" cy="343" r="3" fill="#22303c"/>
<circle cx="591" cy="377" r="3" fill="#22303c"/>
<circle cx="591" cy="411" r="3" fill="#22303c"/>
<circle cx="591" cy="445" r="3" fill="#22303c"/>
<circle cx="591" cy="479" r="3" fill="#22303c"/>
<circle cx="591" cy="513" r="3" fill="#22303c"/>
<circle cx="591" cy="547" r="3" fill="#22303c"/>
<circle cx="591" cy="581" r="3" fill="#22303c"/>
<circle cx="591" cy="615" r="3" fill="#22303c"/>
<circle cx="591" cy="649" r="3" fill="#22303c"/>
<circle cx="591" cy="683" r="3" fill="#22303c"/>
<circle cx="591" cy="717" r="3" fill="#22303c"/>
<circle cx="591" cy="751" r="3" fill="#22303c"/>
<circle cx="591" cy="785" r="3" fill="#22303c"/>
<circle cx="591" cy="819" r="3" fill="#22303c"/>
<circle cx="591" cy="853" r="3" fill="#22303c"/>
<circle cx="591" cy="887" r="3" fill="#22303c"/>
<circle cx="591" cy="921" r="3" fill="#22303c"/>
<circle cx="591" cy="955" r="3" fill="#22303c"/>
<circle cx="625" cy="71" r="3" fill="#22303c"/>
<circle cx="625" cy="105" r="3" fill="#22303c"/>
<circle cx="625" cy="139" r="3" fill="#22303c"/>
<circle cx="625" cy="173" r="3" fill="#22303c"/>
<circle cx="625" cy="207" r="3" fill="#22303c"/>
<circle cx="625" cy="241" r="3" fill="#22303c"/>
<circle cx="625" cy="275" r="3" fill="#22303c"/>
<circle cx="625" cy="309" r="3" fill="#22303c"/>
<circle cx="625" cy="343" r="3" fill="#22303c"/>
<circle cx="625" cy="377" r="3" fill="#22303c"/>
<circle cx="625" cy="411" r="3" fill="#22303c"/>
<circle cx="625" cy="445" r="3" fill="#22303c"/>
<circle cx="625" cy="479" r="3" fill="#22303c"/>
<circle cx="625" cy="513" r="3" fill="#22303c"/>
<circle cx="625" cy="547" r="3" fill="#22303c"/>
<circle cx="625" cy="581" r="3" fill="#22303c"/>
<circle cx="625" cy="615" r="3" fill="#22303c"/>
<circle cx="625" cy="649" r="3" fill="#22303c"/>
<circle cx="625" cy="683" r="3" fill="#22303c"/>
<circle cx="625" cy="717" r="3" fill="#22303c"/>
<circle cx="625" cy="751" r="3" fill="#22303c"/>
<circle cx="625" cy="785" r="3" fill="#22303c"/>
<circle cx="625" cy="819" r="3" fill="#22303c"/>
<circle cx="625" cy="853" r="3" fill="#22303c"/>
<circle cx="625" cy="887" r="3" fill="#22303c"/>
<circle cx="625" cy="921" r="3" fill="#22303c"/>
<circle cx="625" cy="955" r="3" fill="#22303c"/>
<circle cx="659" cy="71" r="3" fill="#22303c"/>
<circle cx="659" cy="105" r="3" fill="#22303c"/>
<circle cx="659" cy="139" r="3" fill="#22303c"/>
<circle cx="659" cy="173" r="3" fill="#22303c"/>
<circle cx="659" cy="207" r="3" fill="#22303c"/>
<circle cx="659" cy="241" r="3" fill="#22303c"/>
<circle cx="659" cy="275" r="3" fill="#22303c"/>
<circle cx="659" cy="309" r="3" fill="#22303c"/>
<circle cx="659" cy="343" r="3" fill="#22303c"/>
<circle cx="659" cy="377" r="3" fill="#22303c"/>
<circle cx="659" cy="411" r="3" fill="#22303c"/>
<circle cx="659" cy="445" r="3" fill="#22303c"/>
<circle cx="659" cy="479" r="3" fill="#22303c"/>
<circle cx="659" cy="513" r="3" fill="#22303c"/>
<circle cx="659" cy="547" r="3" fill="#22303c"/>
<circle cx="659" cy="581" r="3" fill="#22303c"/>
<circle cx="659" cy="615" r="3" fill="#22303c"/>
<circle cx="659" cy="649" r="3" fill="#22303c"/>
<circle cx="659" cy="683" r="3" fill="#22303c"/>
<circle cx="659" cy="717" r="3" fill="#22303c"/>
<circle cx="659" cy="751" r="3" fill="#22303c"/>
<circle cx="659" cy="785" r="3" fill="#22303c"/>
<circle cx="659" cy="819" r="3" fill="#22303c"/>
<circle cx="659" cy="853" r="3" fill="#22303c"/>
<circle cx="659" cy="887" r="3" fill="#22303c"/>
<circle cx="659" cy="921" r="3" fill="#22303c"/>
<circle cx="659" cy="955" r="3" fill="#22303c"/>
<circle cx="693" cy="71" r="3" fill="#22303c"/>
<circle cx="693" cy="105" r="3" fill="#22303c"/>
<circle cx="693" cy="139" r="3" fill="#22303c"/>
<circle cx="693" cy="173" r="3" fill="#22303c"/>
<circle cx="693" cy="207" r="3" fill="#22303c"/>
<circle cx="693" cy="241" r="3" fill="#22303c"/>
<circle cx="693" cy="275" r="3" fill="#22303c"/>
<circle cx="693" cy="309" r="3" fill="#22303c"/>
<circle cx="693" cy="343" r="3" fill="#22303c"/>
<circle cx="693" cy="377" r="3" fill="#22303c"/>
<circle cx="693" cy="411" r="3" fill="#22303c"/>
<circle cx="693" cy="445" r="3" fill="#22303c"/>
<circle cx="693" cy="479" r="3" fill="#22303c"/>
<circle cx="693" cy="513" r="3" fill="#22303c"/>
<circle cx="693" cy="547" r="3" fill="#22303c"/>
<circle cx="693" cy="581" r="3" fill="#22303c"/>
<circle cx="693" cy="615" r="3" fill="#22303c"/>
<circle cx="693" cy="649" r="3" fill="#22303c"/>
<circle cx="693" cy="683" r="3" fill="#22303c"/>
<circle cx="693" cy="717" r="3" fill="#22303c"/>
<circle cx="693" cy="751" r="3" fill="#22303c"/>
<circle cx="693" cy="785" r="3" fill="#22303c"/>
<circle cx="693" cy="819" r="3" fill="#22303c"/>
<circle cx="693" cy="853" r="3" fill="#22303c"/>
<circle cx="693" cy="887" r="3" fill="#22303c"/>
<circle cx="693" cy="921" r="3" fill="#22303c"/>
<circle cx="693" cy="955" r="3" fill="#22303c"/>
<circle cx="727" cy="71" r="3" fill="#22303c"/>
<circle cx="727" cy="105" r="3" fill="#22303c"/>
<circle cx="727" cy="139" r="3" fill="#22303c"/>
<circle cx="727" cy="173" r="3" fill="#22303c"/>
<circle cx="727" cy="207" r="3" fill="#22303c"/>
<circle cx="727" cy="241" r="3" fill="#22303c"/>
<circle cx="727" cy="275" r="3" fill="#22303c"/>
<circle cx="727" cy="309" r="3" fill="#22303c"/>
<circle cx="727" cy="343" r="3" fill="#22303c"/>
<circle cx="727" cy="377" r="3" fill="#22303c"/>
<circle cx="727" cy="411" r="3" fill="#22303c"/>
<circle cx="727" cy="445" r="3" fill="#22303c"/>
<circle cx="727" cy="479" r="3" fill="#22303c"/>
<circle cx="727" cy="513" r="3" fill="#22303c"/>
<circle cx="727" cy="547" r="3" fill="#22303c"/>
<circle cx="727" cy="581" r="3" fill="#22303c"/>
<circle cx="727" cy="615" r="3" fill="#22303c"/>
<circle cx="727" cy="649" r="3" fill="#22303c"/>
<circle cx="727" cy="683" r="3" fill="#22303c"/>
<circle cx="727" cy="717" r="3" fill="#22303c"/>
<circle cx="727" cy="751" r="3" fill="#22303c"/>
<circle cx="727" cy="785" r="3" fill="#22303c"/>
<circle cx="727" cy="819" r="3" fill="#22303c"/>
<circle cx="727" cy="853" r="3" fill="#22303c"/>
<circle cx="727" cy="887" r="3" fill="#22303c"/>
<circle cx="727" cy="921" r="3" fill="#22303c"/>
<circle cx="727" cy="955" r="3" fill="#22303c"/>
<circle cx="761" cy="71" r="3" fill="#22303c"/>
<circle cx="761" cy="105" r="3" fill="#22303c"/>
<circle cx="761" cy="139" r="3" fill="#22303c"/>
<circle cx="761" cy="173" r="3" fill="#22303c"/>
<circle cx="761" cy="207" r="3" fill="#22303c"/>
<circle cx="761" cy="241" r="3" fill="#22303c"/>
<circle cx="761" cy="275" r="3" fill="#22303c"/>
<circle cx="761" cy="309" r="3" fill="#22303c"/>
<circle cx="761" cy="343" r="3" fill="#22303c"/>
<circle cx="761" cy="377" r="3" fill="#22303c"/>
<circle cx="761" cy="411" r="3" fill="#22303c"/>
<circle cx="761" cy="445" r="3" fill="#22303c"/>
<circle cx="761" cy="479" r="3" fill="#22303c"/>
<circle cx="761" cy="513" r="3" fill="#22303c"/>
<circle cx="761" cy="547" r="3" fill="#22303c"/>
<circle cx="761" cy="581" r="3" fill="#22303c"/>
<circle cx="761" cy="615" r="3" fill="#22303c"/>
<circle cx="761" cy="649" r="3" fill="#22303c"/>
<circle cx="761" cy="683" r="3" fill="#22303c"/>
<circle cx="761" cy="717" r="3" fill="#22303c"/>
<circle cx="761" cy="751" r="3" fill="#22303c"/>
<circle cx="761" cy="785" r="3" fill="#22303c"/>
<circle cx="761" cy="819" r="3" fill="#22303c"/>
<circle cx="761" cy="853" r="3" fill="#22303c"/>
<circle cx="761" cy="887" r="3" fill="#22303c"/>
<circle cx="761" cy="921" r="3" fill="#22303c"/>
<circle cx="761" cy="955" r="3" fill="#22303c"/>
<circle cx="795" cy="71" r="3" fill="#22303c"/>
<circle cx="795" cy="105" r="3" fill="#22303c"/>
<circle cx="795" cy="139" r="3" fill="#22303c"/>
<circle cx="795" cy="173" r="3" fill="#22303c"/>
<circle cx="795" cy="207" r="3" fill="#22303c"/>
<circle cx="795" cy="241" r="3" fill="#22303c"/>
<circle cx="795" cy="275" r="3" fill="#22303c"/>
<circle cx="795" cy="309" r="3" fill="#22303c"/>
<circle cx="795" cy="343" r="3" fill="#22303c"/>
<circle cx="795" cy="377" r="3" fill="#22303c"/>
<circle cx="795" cy="411" r="3" fill="#22303c"/>
<circle cx="795" cy="445" r="3" fill="#22303c"/>
<circle cx="795" cy="479" r="3" fill="#22303c"/>
<circle cx="795" cy="513" r="3" fill="#22303c"/>
<circle cx="795" cy="547" r="3" fill="#22303c"/>
<circle cx="795" cy="581" r="3" fill="#22303c"/>
<circle cx="795" cy="615" r="3" fill="#22303c"/>
<circle cx="795" cy="649" r="3" fill="#22303c"/>
<circle cx="795" cy="683" r="3" fill="#22303c"/>
<circle cx="795" cy="717" r="3" fill="#22303c"/>
<circle cx="795" cy="751" r="3" fill="#22303c"/>
<circle cx="795" cy="785" r="3" fill="#22303c"/>
<circle cx="795" cy="819" r="3" fill="#22303c"/>
<circle cx="795" cy="853" r="3" fill="#22303c"/>
<circle cx="795" cy="887" r="3" fill="#22303c"/>
<circle cx="795" cy="921" r="3" fill="#22303c"/>
<circle cx="795" cy="955" r="3" fill="#22303c"/>
<circle cx="829" cy="71" r="3" fill="#22303c"/>
<circle cx="829" cy="105" r="3" fill="#22303c"/>
<circle cx="829" cy="139" r="3" fill="#22303c"/>
<circle cx="829" cy="173" r="3" fill="#22303c"/>
<circle cx="829" cy="207" r="3" fill="#22303c"/>
<circle cx="829" cy="241" r="3" fill="#22303c"/>
<circle cx="829" cy="275" r="3" fill="#22303c"/>
<circle cx="829" cy="309" r="3" fill="#22303c"/>
<circle cx="829" cy="343" r="3" fill="#22303c"/>
<circle cx="829" cy="377" r="3" fill="#22303c"/>
<circle cx="829" cy="411" r="3" fill="#22303c"/>
<circle cx="829" cy="445" r="3" fill="#22303c"/>
<circle cx="829" cy="479" r="3" fill="#22303c"/>
<circle cx="829" cy="513" r="3" fill="#22303c"/>
<circle cx="829" cy="547" r="3" fill="#22303c"/>
<circle cx="829" cy="581" r="3" fill="#22303c"/>
<circle cx="829" cy="615" r="3" fill="#22303c"/>
<circle cx="829" cy="649" r="3" fill="#22303c"/>
<circle cx="829" cy="683" r="3" fill="#22303c"/>
<circle cx="829" cy="717" r="3" fill="#22303c"/>
<circle cx="829" cy="751" r="3" fill="#22303c"/>
<circle cx="829" cy="785" r="3" fill="#22303c"/>
<circle cx="829" cy="819" r="3" fill="#22303c"/>
<circle cx="829" cy="853" r="3" fill="#22303c"/>
<circle cx="829" cy="887" r="3" fill="#22303c"/>
<circle cx="829" cy="921" r="3" fill="#22303c"/>
<circle cx="829" cy="955" r="3" fill="#22303c"/>
<circle cx="863" cy="71" r="3" fill="#22303c"/>
<circle cx="863" cy="105" r="3" fill="#22303c"/>
<circle cx="863" cy="139" r="3" fill="#22303c"/>
<circle cx="863" cy="173" r="3" fill="#22303c"/>
<circle cx="863" cy="207" r="3" fill="#22303c"/>
<circle cx="863" cy="241" r="3" fill="#22303c"/>
<circle cx="863" cy="275" r="3" fill="#22303c"/>
<circle cx="863" cy="309" r="3" fill="#22303c"/>
<circle cx="863" cy="343" r="3" fill="#22303c"/>
<circle cx="863" cy="377" r="3" fill="#22303c"/>
<circle cx="863" cy="411" r="3" fill="#22303c"/>
<circle cx="863" cy="445" r="3" fill="#22303c"/>
<circle cx="863" cy="479" r="3" fill="#22303c"/>
<circle cx="863" cy="513" r="3" fill="#22303c"/>
<circle cx="863" cy="547" r="3" fill="#22303c"/>
<circle cx="863" cy="581" r="3" fill="#22303c"/>
<circle cx="863" cy="615" r="3" fill="#22303c"/>
<circle cx="863" cy="649" r="3" fill="#22303c"/>
<circle cx="863" cy="683" r="3" fill="#22303c"/>
<circle cx="863" cy="717" r="3" fill="#22303c"/>
<circle cx="863" cy="751" r="3" fill="#22303c"/>
<circle cx="863" cy="785" r="3" fill="#22303c"/>
<circle cx="863" cy="819" r="3" fill="#22303c"/>
<circle cx="863" cy="853" r="3" fill="#22303c"/>
<circle cx="863" cy="887" r="3" fill="#22303c"/>
<circle cx="863" cy="921" r="3" fill="#22303c"/>
<circle cx="863" cy="955" r="3" fill="#22303c"/>
<text x="81" y="38" fill="#6e7681" font-size="12" text-anchor="middle">X</text>
<text x="81" y="974" fill="#6e7681" font-size="12" text-anchor="middle">X</text>
<text x="115" y="38" fill="#6e7681" font-size="12" text-anchor="middle">W</text>
<text x="115" y="974" fill="#6e7681" font-size="12" text-anchor="middle">W</text>
<text x="149" y="38" fill="#6e7681" font-size="12" text-anchor="middle">V</text>
<text x="149" y="974" fill="#6e7681" font-size="12" text-anchor="middle">V</text>
<text x="183" y="38" fill="#6e7681" font-size="12" text-anchor="middle">U</text>
<text x="183" y="974" fill="#6e7681" font-size="12" text-anchor="middle">U</text>
<text x="217" y="38" fill="#6e7681" font-size="12" text-anchor="middle">T</text>
<text x="217" y="974" fill="#6e7681" font-size="12" text-anchor="middle">T</text>
<text x="251" y="38" fill="#6e7681" font-size="12" text-anchor="middle">S</text>
<text x="251" y="974" fill="#6e7681" font-size="12" text-anchor="middle">S</text>
<text x="285" y="38" fill="#6e7681" font-size="12" text-anchor="middle">R</text>
<text x="285" y="974" fill="#6e7681" font-size="12" text-anchor="middle">R</text>
<text x="319" y="38" fill="#6e7681" font-size="12" text-anchor="middle">Q</text>
<text x="319" y="974" fill="#6e7681" font-size="12" text-anchor="middle">Q</text>
<text x="353" y="38" fill="#6e7681" font-size="12" text-anchor="middle">P</text>
<text x="353" y="974" fill="#6e7681" font-size="12" text-anchor="middle">P</text>
<text x="387" y="38" fill="#6e7681" font-size="12" text-anchor="middle">O</text>
<text x="387" y="974" fill="#6e7681" font-size="12" text-anchor="middle">O</text>
<text x="421" y="38" fill="#6e7681" font-size="12" text-anchor="middle">N</text>
<text x="421" y="974" fill="#6e7681" font-size="12" text-anchor="middle">N</text>
<text x="455" y="38" fill="#6e7681" font-size="12" text-anchor="middle">M</text>
<text x="455" y="974" fill="#6e7681" font-size="12" text-anchor="middle">M</text>
<text x="489" y="38" fill="#6e7681" font-size="12" text-anchor="middle">L</text>
<text x="489" y="974" fill="#6e7681" font-size="12" text-anchor="middle">L</text>
<text x="523" y="38" fill="#6e7681" font-size="12" text-anchor="middle">K</text>
<text x="523" y="974" fill="#6e7681" font-size="12" text-anchor="middle">K</text>
<text x="557" y="38" fill="#6e7681" font-size="12" text-anchor="middle">J</text>
<text x="557" y="974" fill="#6e7681" font-size="12" text-anchor="middle">J</text>
<text x="591" y="38" fill="#6e7681" font-size="12" text-anchor="middle">I</text>
<text x="591" y="974" fill="#6e7681" font-size="12" text-anchor="middle">I</text>
<text x="625" y="38" fill="#6e7681" font-size="12" text-anchor="middle">H</text>
<text x="625" y="974" fill="#6e7681" font-size="12" text-anchor="middle">H</text>
<text x="659" y="38" fill="#6e7681" font-size="12" text-anchor="middle">G</text>
<text x="659" y="974" fill="#6e7681" font-size="12" text-anchor="middle">G</text>
<text x="693" y="38" fill="#6e7681" font-size="12" text-anchor="middle">F</text>
<text x="693" y="974" fill="#6e7681" font-size="12" text-anchor="middle">F</text>
<text x="727" y="38" fill="#6e7681" font-size="12" text-anchor="middle">E</text>
<text x="727" y="974" fill="#6e7681" font-size="12" text-anchor="middle">E</text>
<text x="761" y="38" fill="#6e7681" font-size="12" text-anchor="middle">D</text>
<text x="761" y="974" fill="#6e7681" font-size="12" text-anchor="middle">D</text>
<text x="795" y="38" fill="#6e7681" font-size="12" text-anchor="middle">C</text>
<text x="795" y="974" fill="#6e7681" font-size="12" text-anchor="middle">C</text>
<text x="829" y="38" fill="#6e7681" font-size="12" text-anchor="middle">B</text>
<text x="829" y="974" fill="#6e7681" font-size="12" text-anchor="middle">B</text>
<text x="863" y="38" fill="#6e7681" font-size="12" text-anchor="middle">A</text>
<text x="863" y="974" fill="#6e7681" font-size="12" text-anchor="middle">A</text>
<text x="24" y="75" fill="#6e7681" font-size="12"> 1</text>
<text x="24" y="109" fill="#6e7681" font-size="12"> 2</text>
<text x="24" y="143" fill="#6e7681" font-size="12"> 3</text>
<text x="24" y="177" fill="#6e7681" font-size="12"> 4</text>
<text x="24" y="211" fill="#6e7681" font-size="12"> 5</text>
<text x="24" y="245" fill="#6e7681" font-size="12"> 6</text>
<text x="24" y="279" fill="#6e7681" font-size="12"> 7</text>
<text x="24" y="313" fill="#6e7681" font-size="12"> 8</text>
<text x="24" y="347" fill="#6e7681" font-size="12"> 9</text>
<text x="24" y="381" fill="#6e7681" font-size="12">10</text>
<text x="24" y="415" fill="#6e7681" font-size="12">11</text>
<text x="24" y="449" fill="#6e7681" font-size="12">12</text>
<text x="24" y="483" fill="#6e7681" font-size="12">13</text>
<text x="24" y="517" fill="#6e7681" font-size="12">14</text>
<text x="24" y="551" fill="#6e7681" font-size="12">15</text>
<text x="24" y="585" fill="#6e7681" font-size="12">16</text>
<text x="24" y="619" fill="#6e7681" font-size="12">17</text>
<text x="24" y="653" fill="#6e7681" font-size="12">18</text>
<text x="24" y="687" fill="#6e7681" font-size="12">19</text>
<text x="24" y="721" fill="#6e7681" font-size="12">20</text>
<text x="24" y="755" fill="#6e7681" font-size="12">21</text>
<text x="24" y="789" fill="#6e7681" font-size="12">22</text>
<text x="24" y="823" fill="#6e7681" font-size="12">23</text>
<text x="24" y="857" fill="#6e7681" font-size="12">24</text>
<text x="24" y="891" fill="#6e7681" font-size="12">25</text>
<text x="24" y="925" fill="#6e7681" font-size="12">26</text>
<text x="24" y="959" fill="#6e7681" font-size="12">27</text>
<rect x="94" y="118" width="688" height="416" rx="10" fill="#3b2530" fill-opacity="0.55" stroke="#f0883e" stroke-width="1.5" stroke-dasharray="5 4"/>
<text x="438" y="136" fill="#f0f0f0" font-size="15" font-weight="700" text-anchor="middle">FREENOVE (plugs into 2 socket strips: row 4 &amp; row 14)</text>
<text x="438" y="343" fill="#c9a0a0" font-size="12" text-anchor="middle">camera sticks up out of this area</text>
<text x="90" y="359" fill="#8b949e" font-size="11" text-anchor="end">USB</text>
<rect x="332" y="662" width="280" height="280" rx="10" fill="#16283b" fill-opacity="0.6" stroke="#58a6ff" stroke-width="1.5" stroke-dasharray="5 4"/>
<text x="472" y="654" fill="#f0f0f0" font-size="15" font-weight="700" text-anchor="middle">SX1262 (2 socket strips: row 19 &amp; row 26)</text>
<text x="607" y="687" fill="#f0883e" font-size="11">ANT-> ant</text>
<line x1="251" y1="513" x2="489" y2="683" stroke="#e3b341" stroke-width="2.4" opacity="0.9"/>
<circle cx="251" cy="513" r="7" fill="#e3b341"/>
<text x="251" y="503" fill="#e3b341" font-size="10.5" font-weight="700" text-anchor="middle">47</text>
<circle cx="489" cy="683" r="7" fill="none" stroke="#e3b341" stroke-width="2.5"/>
<text x="489" y="701" fill="#e3b341" font-size="10" text-anchor="middle">CLK</text>
<line x1="285" y1="513" x2="455" y2="683" stroke="#7ee787" stroke-width="2.4" opacity="0.9"/>
<circle cx="285" cy="513" r="7" fill="#7ee787"/>
<text x="285" y="503" fill="#7ee787" font-size="10.5" font-weight="700" text-anchor="middle">48</text>
<circle cx="455" cy="683" r="7" fill="none" stroke="#7ee787" stroke-width="2.5"/>
<text x="455" y="701" fill="#7ee787" font-size="10" text-anchor="middle">MOSI</text>
<line x1="489" y1="513" x2="421" y2="683" stroke="#58a6ff" stroke-width="2.4" opacity="0.9"/>
<circle cx="489" cy="513" r="7" fill="#58a6ff"/>
<text x="489" y="503" fill="#58a6ff" font-size="10.5" font-weight="700" text-anchor="middle">38</text>
<circle cx="421" cy="683" r="7" fill="none" stroke="#58a6ff" stroke-width="2.5"/>
<text x="421" y="701" fill="#58a6ff" font-size="10" text-anchor="middle">MISO</text>
<line x1="149" y1="173" x2="523" y2="683" stroke="#f0883e" stroke-width="2.4" opacity="0.9"/>
<circle cx="149" cy="173" r="7" fill="#f0883e"/>
<text x="149" y="163" fill="#f0883e" font-size="10.5" font-weight="700" text-anchor="middle">14</text>
<circle cx="523" cy="683" r="7" fill="none" stroke="#f0883e" stroke-width="2.5"/>
<text x="523" y="701" fill="#f0883e" font-size="10" text-anchor="middle">CS</text>
<line x1="693" y1="513" x2="387" y2="683" stroke="#c9d1d9" stroke-width="2.4" opacity="0.9"/>
<circle cx="693" cy="513" r="7" fill="#c9d1d9"/>
<text x="693" y="503" fill="#c9d1d9" font-size="10.5" font-weight="700" text-anchor="middle">1</text>
<circle cx="387" cy="683" r="7" fill="none" stroke="#c9d1d9" stroke-width="2.5"/>
<text x="387" y="701" fill="#c9d1d9" font-size="10" text-anchor="middle">RESET</text>
<line x1="659" y1="513" x2="353" y2="683" stroke="#bc8cff" stroke-width="2.4" opacity="0.9"/>
<circle cx="659" cy="513" r="7" fill="#bc8cff"/>
<text x="659" y="503" fill="#bc8cff" font-size="10.5" font-weight="700" text-anchor="middle">2</text>
<circle cx="353" cy="683" r="7" fill="none" stroke="#bc8cff" stroke-width="2.5"/>
<text x="353" y="701" fill="#bc8cff" font-size="10" text-anchor="middle">BUSY</text>
<line x1="625" y1="513" x2="421" y2="921" stroke="#39c5cf" stroke-width="2.4" opacity="0.9"/>
<circle cx="625" cy="513" r="7" fill="#39c5cf"/>
<text x="625" y="503" fill="#39c5cf" font-size="10.5" font-weight="700" text-anchor="middle">42</text>
<circle cx="421" cy="921" r="7" fill="none" stroke="#39c5cf" stroke-width="2.5"/>
<text x="421" y="939" fill="#39c5cf" font-size="10" text-anchor="middle">DIO1</text>
<line x1="761" y1="173" x2="353" y2="921" stroke="#f85149" stroke-width="2.4" opacity="0.9"/>
<circle cx="761" cy="173" r="7" fill="#f85149"/>
<text x="761" y="163" fill="#f85149" font-size="10.5" font-weight="700" text-anchor="middle">3V3</text>
<circle cx="353" cy="921" r="7" fill="none" stroke="#f85149" stroke-width="2.5"/>
<text x="353" y="939" fill="#f85149" font-size="10" text-anchor="middle">3V3</text>
<line x1="115" y1="513" x2="387" y2="921" stroke="#8b949e" stroke-width="2.4" opacity="0.9"/>
<circle cx="115" cy="513" r="7" fill="#8b949e"/>
<text x="115" y="503" fill="#8b949e" font-size="10.5" font-weight="700" text-anchor="middle">GND</text>
<circle cx="387" cy="921" r="7" fill="none" stroke="#8b949e" stroke-width="2.5"/>
<text x="387" y="939" fill="#8b949e" font-size="10" text-anchor="middle">GND</text>
<text x="920" y="50" fill="#e6e6e6" font-size="15" font-weight="700">9 wires — from -> to (col,row)</text>
<text x="920" y="78" fill="#8b949e" font-size="12">wire      Freenove pin        SX1262 pad</text>
<rect x="920" y="99" width="12" height="12" fill="#e3b341"/>
<text x="940" y="110" fill="#e6e6e6" font-size="12.5">SCK   47 @ S14   ->  CLK @ L19</text>
<rect x="920" y="125" width="12" height="12" fill="#7ee787"/>
<text x="940" y="136" fill="#e6e6e6" font-size="12.5">MOSI  48 @ R14   ->  MOSI @ M19</text>
<rect x="920" y="151" width="12" height="12" fill="#58a6ff"/>
<text x="940" y="162" fill="#e6e6e6" font-size="12.5">MISO  38 @ L14   ->  MISO @ N19</text>
<rect x="920" y="177" width="12" height="12" fill="#f0883e"/>
<text x="940" y="188" fill="#e6e6e6" font-size="12.5">NSS   14 @ V4    ->  CS @ K19</text>
<rect x="920" y="203" width="12" height="12" fill="#c9d1d9"/>
<text x="940" y="214" fill="#e6e6e6" font-size="12.5">RST   1 @ F14   ->  RESET @ O19</text>
<rect x="920" y="229" width="12" height="12" fill="#bc8cff"/>
<text x="940" y="240" fill="#e6e6e6" font-size="12.5">BUSY  2 @ G14   ->  BUSY @ P19</text>
<rect x="920" y="255" width="12" height="12" fill="#39c5cf"/>
<text x="940" y="266" fill="#e6e6e6" font-size="12.5">DIO1  42 @ H14   ->  DIO1 @ N26</text>
<rect x="920" y="281" width="12" height="12" fill="#f85149"/>
<text x="940" y="292" fill="#e6e6e6" font-size="12.5">3V3   3V3 @ D4    ->  3V3 @ P26</text>
<rect x="920" y="307" width="12" height="12" fill="#8b949e"/>
<text x="940" y="318" fill="#e6e6e6" font-size="12.5">GND   GND @ W14   ->  GND @ O26</text>
<text x="920" y="382" fill="#9aa4b2" font-size="12">• Wires run on the UNDERSIDE (solder side).</text>
<text x="920" y="404" fill="#9aa4b2" font-size="12">• Short by design: SCK/BUSY/DIO1 all on row 14,</text>
<text x="920" y="426" fill="#9aa4b2" font-size="12">   right above the radio. 3V3/NSS are the long ones</text>
<text x="920" y="448" fill="#9aa4b2" font-size="12">   (not timing-critical, fine to route long).</text>
<text x="920" y="470" fill="#9aa4b2" font-size="12">• Socket the WHOLE radio (all 16 pads) — leaves</text>
<text x="920" y="492" fill="#9aa4b2" font-size="12">   DIO2/TXEN/RXEN reachable if power-up needs them.</text>
<text x="920" y="514" fill="#9aa4b2" font-size="12">• A on right, X on left (matches your board).</text>
<text x="920" y="536" fill="#9aa4b2" font-size="12">• Row #s: I put Freenove at rows 4 and 14. If your</text>
<text x="920" y="558" fill="#9aa4b2" font-size="12">   board numbers from the other end, just count 10</text>
<text x="920" y="580" fill="#9aa4b2" font-size="12">   holes between the two Freenove strips - that's</text>
<text x="920" y="602" fill="#9aa4b2" font-size="12">   the only spacing that must be exact.</text>
</svg>